<svg version="1.2" xmlns="http://www.w3.org/2000/svg" viewBox="0 0 119 53" width="119" height="53">
	<title>&lt;Group&gt;</title>
	<defs>
		<linearGradient id="g1" x2="1" gradientUnits="userSpaceOnUse" gradientTransform="matrix(79.962,0,0,51.917,17.692,.623)">
			<stop offset="0" stop-color="#ff4500"/>
			<stop offset=".715" stop-color="#ffb200"/>
		</linearGradient>
	</defs>
	<style>
		.s0 { fill: #ffffff } 
		.s1 { fill: url(#g1) } 
		.s2 { fill: #ea5504 } 
	</style>
	<g id="&lt;Group&gt;">
		<path id="&lt;Path&gt;" class="s0" d="m25.1 31.6h-10.8l-14.2-17.6h10.8z"/>
		<path id="&lt;Path&gt;" class="s0" d="m0.1 49.1h10.8l14.2-17.5h-10.8z"/>
		<path id="&lt;Path&gt;" class="s1" d="m27.5 39.2c-4.1-9.2 5-21.7 24.6-28.8 18.2-6.5 40.5-5.9 44.6 5.7q0.5 1.5 0.7 3c0.4-2.4 0.3-4.6-0.4-6.5-3.7-9.1-20.8-16.2-46.2-9.1-21.5 6-36.8 23.5-32.3 36 4.4 12.5 27.3 16.8 48.4 9.4q0 0 0 0c-20.3 4.3-35.2-0.1-39.4-9.7z"/>
		<g id="&lt;Group&gt;">
			<path id="&lt;Compound Path&gt;" fill-rule="evenodd" class="s0" d="m57.9 22.9c-0.1 0-0.2 0-0.4 0v-0.5q0.2 0.1 0.4 0.1h0.1v-0.4c0-0.2 0-0.3 0-0.4h0.5c0 0.1 0 0.2 0 0.4v0.4h0.1q0.1 0 0.2 0v0.4q-0.1 0-0.2 0h-0.1v0.7c0.1-0.1 0.2-0.1 0.4-0.2v0.5c-0.2 0-0.2 0-0.4 0.1v1.2c0 0.4-0.1 0.5-0.6 0.5-0.1 0-0.1 0-0.3 0 0-0.2 0-0.3-0.1-0.5q0.2 0 0.4 0c0.1 0 0.1 0 0.1-0.1v-0.9q0 0-0.1 0c-0.1 0-0.1 0-0.1 0.1q-0.1 0-0.2 0l-0.1-0.4c0.2-0.1 0.2-0.1 0.5-0.2v-0.8zm2-0.2h-0.4q-0.3 0-0.5 0v-0.5q0.2 0 0.5 0h0.4v-0.1c0-0.2 0-0.3 0-0.4h0.5c0 0.1 0 0.2 0 0.4v0.1h0.6q0.3 0 0.5 0v0.5c-0.1 0-0.3 0-0.5 0h-0.6v0.5h0.4q0.2 0 0.3 0l0.3 0.3c-0.1 0-0.1 0.1-0.2 0.2-0.2 0.4-0.4 0.7-0.7 1 0.4 0.2 0.7 0.4 1.1 0.5-0.1 0.2-0.2 0.3-0.2 0.5-0.5-0.2-0.9-0.4-1.2-0.7-0.4 0.3-0.8 0.5-1.3 0.7q-0.1-0.3-0.2-0.5c0.4-0.1 0.8-0.3 1.2-0.5-0.3-0.3-0.5-0.6-0.7-1 0 0-0.1 0-0.1 0v-0.5q0.2 0 0.4 0h0.4zm-0.2 1q0.2 0.4 0.5 0.7c0.3-0.2 0.4-0.4 0.5-0.7z"/>
			<path id="&lt;Compound Path&gt;" fill-rule="evenodd" class="s0" d="m63.6 22.2c0-0.3 0-0.4 0-0.5h0.5c-0.1 0.1-0.1 0.2-0.1 0.5v0.3h0.2c0.2 0 0.3 0 0.4 0v0.4c0.1 0 0.2 0 0.3 0h0.6c0.2 0 0.3 0 0.4-0.1v0.5c-0.1 0-0.2 0-0.4 0v1.9q0 0.3-0.2 0.4-0.1 0-0.4 0c-0.1 0-0.2 0-0.4 0 0-0.2 0-0.3-0.1-0.4q0.3 0 0.5 0 0.2 0 0.2-0.1v-1.8h-0.2c-0.2 0-0.2 0-0.3 0v-0.3q-0.1 0-0.3 0h-0.3v2.1c0 0.3 0 0.4 0.1 0.6h-0.5c0-0.2 0-0.3 0-0.6v-2.1h-0.4c-0.1 0-0.2 0-0.3 0q-0.1 0.3-0.3 0.4v1.8c0 0.2 0.1 0.3 0.1 0.5h-0.5c0-0.2 0-0.3 0-0.5v-0.8c0-0.2 0-0.2 0-0.5q-0.1 0.1-0.3 0.3c0-0.3-0.1-0.4-0.2-0.5q0.4-0.3 0.7-0.7 0.2-0.2 0.2-0.4l0.3 0.2v-0.3c0.2 0 0.2 0 0.4 0h0.3zm-0.6-0.3q0 0.1-0.2 0.3c-0.3 0.3-0.5 0.5-0.8 0.7-0.1-0.1-0.1-0.2-0.2-0.4 0.3-0.2 0.6-0.5 0.8-0.8zm0.4 1.4c0 1-0.1 1.5-0.3 2-0.1-0.1-0.2-0.2-0.4-0.3 0.1-0.2 0.2-0.4 0.2-0.7 0.1-0.3 0.1-0.7 0.1-1zm1-0.9c-0.1-0.2-0.2-0.3-0.3-0.5l0.3-0.2c0.1 0.1 0.2 0.2 0.3 0.4v-0.2q0.1 0 0.3 0h0.5q0.2 0 0.3 0v0.4c-0.1 0-0.2 0-0.3 0h-0.5q-0.1 0-0.3 0v-0.1zm0.1 0.8c0.1 0.5 0.2 1 0.3 1.5l-0.4 0.2c-0.1-0.7-0.2-1.2-0.3-1.6z"/>
			<path id="&lt;Compound Path&gt;" fill-rule="evenodd" class="s0" d="m66.3 22.3q0.2 0 0.2 0c0.1 0 0.1 0 0.7-0.1q0.5 0 2.3-0.1c0.3 0 0.3 0 0.4 0v0.6c0-0.1 0-0.1 0-0.1-0.3 0-0.6 0.1-0.9 0.3-0.6 0.3-0.9 0.7-0.9 1.1 0 0.4 0.2 0.7 0.6 0.8 0.2 0 0.5 0.1 0.6 0.1q0.1 0 0.1 0l-0.1 0.6c0 0 0 0-0.1-0.1-0.5 0-0.8-0.1-1-0.3-0.4-0.2-0.6-0.5-0.6-1 0-0.4 0.1-0.7 0.4-1 0.1-0.2 0.3-0.3 0.6-0.5-0.4 0.1-0.6 0.1-1.5 0.2-0.4 0-0.6 0-0.7 0.1zm3 0.8c0.2 0.2 0.3 0.4 0.4 0.6l-0.3 0.2c-0.1-0.3-0.2-0.4-0.4-0.7zm0.7 0.6q-0.2-0.4-0.5-0.7l0.3-0.1c0.2 0.2 0.3 0.4 0.5 0.6z"/>
			<path id="&lt;Compound Path&gt;" class="s0" d="m73.7 22.2c0.3 0 0.4 0 0.6 0v0.5c-0.2 0-0.3 0-0.6 0h-0.9v0.6h1.2c0.2 0 0.4 0 0.5 0v0.5q-0.2-0.1-0.5-0.1h-1c0.4 0.6 0.9 1 1.6 1.3-0.1 0.2-0.2 0.3-0.3 0.5-0.4-0.2-0.6-0.4-0.9-0.6-0.3-0.3-0.4-0.5-0.6-0.8 0 0.2 0 0.3 0 0.4v0.7q0 0.3 0 0.5h-0.5q0-0.2 0-0.5v-0.7c0-0.1 0-0.2 0-0.4-0.2 0.3-0.3 0.5-0.6 0.7-0.3 0.3-0.5 0.5-0.9 0.7-0.1-0.2-0.1-0.3-0.3-0.5 0.4-0.1 0.7-0.3 1-0.6 0.2-0.2 0.4-0.4 0.6-0.7h-0.9c-0.2 0-0.4 0-0.5 0.1v-0.5c0.1 0 0.3 0 0.5 0h1.1v-0.6h-0.9c-0.2 0-0.3 0-0.5 0v-0.5c0.2 0 0.3 0 0.5 0h0.9v-0.2q0-0.2 0-0.4h0.5c0 0.1 0 0.2 0 0.4v0.2z"/>
			<path id="&lt;Compound Path&gt;" class="s0" d="m75.5 23.9c-0.2 0-0.3 0-0.5 0.1v-0.5c0.1 0 0.3 0 0.5 0h0.4c-0.1-0.3-0.2-0.5-0.4-0.7l0.5-0.2c0.1 0.2 0.1 0.3 0.3 0.7l-0.3 0.2h0.7v-1h-1c-0.2 0-0.4 0.1-0.5 0.1v-0.5c0.2 0 0.3 0 0.5 0h1v-0.1c0-0.1 0-0.2-0.1-0.3h0.6c0 0.1 0 0.1 0 0.3v0.1h1c0.2 0 0.4 0 0.5 0v0.5c-0.1-0.1-0.3-0.1-0.5-0.1h-1v1h0.2c0.2-0.3 0.4-0.6 0.5-0.9l0.4 0.2c-0.1 0.2-0.2 0.4-0.3 0.7h0.4c0.3 0 0.4 0 0.5 0v0.5c-0.1-0.1-0.3-0.1-0.5-0.1h-1c0.4 0.5 0.9 0.9 1.6 1.2-0.1 0.1-0.2 0.3-0.3 0.5-0.4-0.3-0.7-0.4-1-0.7-0.2-0.2-0.4-0.4-0.6-0.7 0 0.3 0.1 0.3 0.1 0.4v0.6q0 0.3 0 0.5h-0.6c0.1-0.1 0.1-0.3 0.1-0.5v-0.6c0-0.1 0-0.2 0-0.4-0.2 0.4-0.4 0.6-0.7 0.9-0.3 0.1-0.5 0.3-0.8 0.4-0.1-0.1-0.1-0.2-0.3-0.4 0.4-0.2 0.8-0.4 1.1-0.7 0.1-0.1 0.2-0.2 0.4-0.5z"/>
			<path id="&lt;Compound Path&gt;" class="s0" d="m79.6 22.2c0.2 0 0.5 0 1 0 0.2-0.2 0.2-0.3 0.2-0.5l0.6 0.1c0 0 0 0-0.2 0.4q0 0 0 0c0 0 0 0 0.2 0q0.8 0 1.2-0.1v0.5c-0.1 0-0.1 0-0.3 0-0.3 0-0.9 0.1-1.3 0.1-0.2 0.2-0.3 0.4-0.4 0.6 0 0 0 0 0.1-0.1 0.1-0.1 0.3-0.2 0.6-0.2q0.5 0 0.6 0.5 0.5-0.2 0.7-0.3c0.2 0 0.2 0 0.3-0.1l0.2 0.5c-0.1 0-0.3 0.1-0.5 0.1q-0.1 0.1-0.6 0.3c0 0.1 0 0.1 0 0.2q0 0.1 0 0.2-0.1 0.1 0 0.1 0 0.1 0 0.2h-0.5c0 0 0-0.3 0-0.5 0 0 0 0 0-0.1-0.2 0.1-0.3 0.2-0.4 0.3q-0.3 0.1-0.3 0.3c0 0.2 0.2 0.3 0.8 0.3 0.5 0 0.9 0 1.3-0.1v0.5c-0.1 0-0.1 0-0.2 0-0.3 0.1-0.7 0.1-1.1 0.1-0.5 0-0.8 0-1-0.2-0.2-0.1-0.3-0.3-0.3-0.5 0-0.2 0-0.4 0.2-0.5 0.2-0.3 0.4-0.4 0.9-0.6q0-0.3-0.2-0.3-0.4 0-0.9 0.5c-0.2 0.1-0.3 0.2-0.4 0.4l-0.4-0.4q0.1-0.1 0.4-0.4c0.1-0.2 0.4-0.6 0.5-0.7 0-0.1 0-0.1 0-0.1 0 0 0 0 0 0-0.1 0-0.5 0-0.6 0-0.1 0-0.1 0-0.1 0q0 0-0.1 0z"/>
			<path id="&lt;Compound Path&gt;" class="s0" d="m84 23.3c-0.2 0-0.2 0.1-0.4 0.1v-0.5q0.1 0 0.3 0l0.2-0.1v-0.7c0-0.2 0-0.3 0-0.4h0.5c0 0.1 0 0.2 0 0.4v0.6l0.6-0.1q0.2 0 0.3-0.1v0.5q-0.1 0-0.3 0.1l-0.6 0.1v1.1c0 0.1 0 0.1 0.1 0.1q0.2 0 0.3-0.1 0-0.1 0-0.6 0.2 0.1 0.5 0.1c-0.1 0.6-0.1 0.8-0.3 0.9q-0.2 0.2-0.6 0.2c-0.4 0-0.5-0.1-0.5-0.5v-1.1zm1.6-0.9q-0.3 0-0.4 0v-0.5q0.2 0 0.6 0h1.4c0.2 0 0.3 0 0.5 0-0.1 0.2-0.1 0.3-0.1 1.3 0 1-0.1 1.7-0.2 2q-0.2 0.4-0.7 0.4c-0.1 0-0.3 0-0.4-0.1 0-0.2-0.1-0.3-0.1-0.4q0.3 0 0.4 0c0.3 0 0.3 0 0.4-0.4q0.1-0.5 0.1-1.1c0-0.4 0-0.4 0.1-1.2h-0.7c0 0.9-0.1 1.3-0.2 1.8-0.2 0.3-0.3 0.7-0.6 1-0.2 0.2-0.3 0.3-0.6 0.5-0.1-0.2-0.2-0.3-0.4-0.4 0.4-0.2 0.6-0.4 0.8-0.7 0.3-0.4 0.4-0.8 0.5-1.5 0-0.2 0-0.3 0-0.7z"/>
			<path id="&lt;Compound Path&gt;" class="s0" d="m89.4 21.8c0 0.1 0 0.2-0.1 0.8q-0.1 0.3-0.1 0.4c0 0 0 0 0.1-0.1 0-0.1 0.1-0.3 0.2-0.5q0.4-0.4 0.9-0.4 0.4 0 0.7 0.4c0.2 0.3 0.3 0.6 0.3 1.1 0 0.9-0.4 1.5-1.1 1.8-0.2 0.1-0.5 0.2-0.9 0.3 0-0.3-0.1-0.4-0.2-0.5 0.4-0.1 0.7-0.2 0.9-0.3 0.5-0.2 0.8-0.7 0.8-1.3 0-0.7-0.2-1-0.6-1q-0.3 0-0.5 0.2c-0.3 0.4-0.5 0.9-0.5 1.4q0 0.1 0 0.1h-0.6q0 0 0 0 0 0 0-0.1c0-0.1 0-0.4 0-0.5 0-0.4 0.1-0.9 0.1-1.2l0.1-0.5c0-0.1 0-0.1 0-0.2z"/>
			<path id="&lt;Compound Path&gt;" fill-rule="evenodd" class="s0" d="m93.1 25.1c0 0.3 0 0.4 0 0.6h-0.5c0-0.2 0-0.3 0-0.6v-2.9c0-0.2 0-0.3 0-0.4 0.1 0 0.2 0 0.4 0h0.8c0.3 0 0.4 0 0.5 0q0 0.1 0 0.4v0.6c0 0.2 0 0.3 0 0.4q-0.2 0-0.4 0h-0.8zm0-2.8h0.7v-0.2h-0.7zm0 0.5h0.7v-0.2h-0.7zm0.7 1.3c0-0.2 0-0.2 0-0.4-0.2 0-0.3 0-0.4 0v-0.4c0.1 0 0.2 0 0.4 0h1.3c0.2 0 0.3 0 0.4 0v0.4c-0.1 0-0.2 0-0.4 0v0.4c0.3 0 0.4 0 0.5 0v0.4c-0.1 0-0.3 0-0.5 0v0.6c0 0.2 0 0.3 0 0.4h-0.5c0.1-0.1 0.1-0.2 0.1-0.4v-0.6h-0.5c-0.1 0.4-0.2 0.7-0.6 1-0.1-0.1-0.2-0.2-0.3-0.3 0.3-0.2 0.4-0.4 0.5-0.7-0.3 0-0.4 0-0.5 0v-0.4c0.1 0 0.2 0 0.4 0zm0.5-0.4c0 0.2 0 0.2 0 0.4h0.4v-0.4zm2.1 1.3c0 0.4-0.1 0.5-0.6 0.5-0.1 0-0.2 0-0.3 0 0-0.2-0.1-0.3-0.1-0.4q0.2 0 0.4 0c0.1 0 0.1 0 0.1-0.1v-1.9h-0.8q-0.3 0-0.4 0c0-0.1 0-0.2 0-0.4v-0.6c0-0.2 0-0.3 0-0.4 0.1 0 0.2 0 0.4 0h0.9c0.2 0 0.3 0 0.4 0 0 0.1 0 0.2 0 0.5zm-1.3-2.8h0.8v-0.3h-0.8zm0 0.6h0.8v-0.3h-0.8z"/>
			<path id="&lt;Compound Path&gt;" class="s0" d="m99.8 22.1c-0.1 0-0.1 0.1-0.5 0.5-0.3 0.2-0.6 0.4-1.1 0.8-0.1 0.1-0.1 0.1-0.1 0.2 0 0.1 0 0.1 0.4 0.4 0.6 0.5 0.8 0.6 1.3 1.1 0.1 0 0.1 0.1 0.2 0.1l-0.5 0.5c-0.1-0.2-0.3-0.4-0.6-0.6-0.3-0.3-0.4-0.4-1.1-1-0.3-0.2-0.4-0.3-0.4-0.5q0-0.2 0.2-0.4c0.1 0 0.1 0 0.4-0.3 0.4-0.3 0.7-0.5 1-0.8 0.2-0.2 0.2-0.3 0.3-0.4z"/>
		</g>
		<g id="&lt;Group&gt;">
			<g id="&lt;Group&gt;">
				<path id="&lt;Compound Path&gt;" class="s0" d="m50.9 27.4v3.3h-6.9v3.5h5.1v3.3h-5.1v6.8h-4.2v-16.9z"/>
				<path id="&lt;Compound Path&gt;" class="s0" d="m66.4 30.8v13.5h-4.2v-1.8q-0.6 0.9-1.7 1.4-1.1 0.6-2.4 0.6-1.5 0-2.7-0.7-1.2-0.7-1.8-2-0.7-1.3-0.7-3.1v-7.9h4.1v7.4q0 1.3 0.7 2.1 0.7 0.7 1.9 0.7 1.2 0 1.9-0.7 0.7-0.8 0.7-2.1v-7.4z"/>
				<path id="&lt;Compound Path&gt;" class="s0" d="m76.8 40.8v3.5h-2.1q-2.2 0-3.5-1.1-1.2-1.1-1.2-3.6v-5.3h-1.7v-3.5h1.7v-3.2h4.1v3.2h2.7v3.5h-2.7v5.4q0 0.6 0.3 0.8 0.3 0.3 1 0.3z"/>
				<path id="&lt;Compound Path&gt;" class="s0" d="m101.3 31.3q1.1-0.6 2.5-0.6v4.4h-1.2q-1.5 0-2.3 0.6-0.8 0.7-0.8 2.4v6.2h-4.1v-13.5h4.1v2.3q0.8-1.1 1.8-1.8z"/>
				<path id="&lt;Compound Path&gt;" fill-rule="evenodd" class="s0" d="m118.4 38.6h-9.4q0.1 1.2 0.8 1.9 0.7 0.6 1.8 0.6 1.5 0 2.1-1.3h4.4q-0.3 1.4-1.2 2.4-0.9 1.1-2.2 1.7-1.3 0.6-3 0.6-2 0-3.5-0.8-1.6-0.9-2.4-2.5-0.9-1.5-0.9-3.6 0-2.1 0.9-3.7 0.8-1.6 2.4-2.4 1.5-0.9 3.5-0.9 2 0 3.5 0.9 1.5 0.8 2.4 2.3 0.8 1.5 0.8 3.6 0 0.5 0 1.2zm-4.2-2.3q0-1.1-0.7-1.7-0.7-0.6-1.8-0.6-1.1 0-1.8 0.6-0.7 0.6-0.9 1.7z"/>
			</g>
			<g id="&lt;Group&gt;">
				<path id="&lt;Path&gt;" class="s2" d="m92.4 32.6v-1.8h-4.1v6.7q2.3-2.3 4.1-4.9z"/>
				<path id="&lt;Path&gt;" class="s0" d="m88.2 39q-0.1 0.8-0.6 1.3-0.7 0.7-1.9 0.7-1.2 0-1.9-0.7-0.7-0.8-0.7-2.1v-7.4h-4.1v7.9q0 1.8 0.7 3.1 0.6 1.3 1.8 2 1.2 0.7 2.7 0.7 1.3 0 2.4-0.6 1.1-0.5 1.7-1.4v1.8h4.1v-9.5-0.4q-1.8 2.4-4.2 4.6z"/>
			</g>
		</g>
	</g>
</svg>